<svg xmlns="http://www.w3.org/2000/svg" width="232" height="64" viewBox="0 0 232 64" fill="none"><path d="M0 6C0 2.68629 2.68629 0 6 0H58C61.3137 0 64 2.68629 64 6V58C64 61.3137 61.3137 64 58 64H6C2.68629 64 0 61.3137 0 58V6Z" fill="#09112B"></path><path fill-rule="evenodd" clip-rule="evenodd" d="M24 16C15.1634 16 8 23.1634 8 32C8 40.8366 15.1634 48 24 48H54C55.1046 48 56 47.1046 56 46V32C56 23.1634 48.8366 16 40 16H24ZM40 20H24C17.3726 20 12 25.3726 12 32C12 38.6274 17.3726 44 24 44H40C46.6274 44 52 38.6274 52 32C52 25.3726 46.6274 20 40 20ZM35 30C36.3807 30 37.5 28.8807 37.5 27.5C37.5 26.1193 36.3807 25 35 25C33.6193 25 32.5 26.1193 32.5 27.5C32.5 27.5943 32.5052 27.6874 32.5154 27.779L28.6851 29.9887C28.2699 29.6816 27.7562 29.5 27.2 29.5C25.8193 29.5 24.7 30.6193 24.7 32C24.7 33.3807 25.8193 34.5 27.2 34.5C27.7562 34.5 28.2699 34.3184 28.6851 34.0113L32.5154 36.221C32.5052 36.3126 32.5 36.4057 32.5 36.5C32.5 37.8807 33.6193 39 35 39C36.3807 39 37.5 37.8807 37.5 36.5C37.5 35.1193 36.3807 34 35 34C34.4439 34 33.9301 34.1816 33.5149 34.4887L29.6846 32.2789C29.6948 32.1874 29.7 32.0943 29.7 32C29.7 31.9057 29.6948 31.8126 29.6846 31.7211L33.5149 29.5113C33.9302 29.8184 34.4439 30 35 30Z" fill="white"></path><path fill-rule="evenodd" clip-rule="evenodd" d="M88.5319 25.391C88.6758 26.4302 88.9584 27.2071 89.3798 27.7215C90.1505 28.6579 91.471 29.126 93.3414 29.126C94.4615 29.126 95.371 29.0026 96.0698 28.7556C97.3955 28.2823 98.0583 27.4026 98.0583 26.1164C98.0583 25.3653 97.7294 24.7839 97.0717 24.3723C96.414 23.9711 95.3813 23.6161 93.9734 23.3074L91.5687 22.7672C89.205 22.2322 87.5711 21.6508 86.6668 21.0232C85.1355 19.9736 84.37 18.3325 84.37 16.0997C84.37 14.0624 85.1099 12.3698 86.5897 11.0219C88.0695 9.67395 90.243 9 93.1101 9C95.5046 9 97.547 9.63536 99.2375 10.9061C100.928 12.1769 101.814 14.0212 101.897 16.4392H97.3338C97.2516 15.0707 96.6555 14.0984 95.5457 13.5222C94.8058 13.1415 93.886 12.9511 92.7864 12.9511C91.5635 12.9511 90.5873 13.1981 89.8576 13.692C89.128 14.1859 88.7632 14.8752 88.7632 15.7601C88.7632 16.573 89.1228 17.1801 89.8422 17.5814C90.3046 17.8489 91.2912 18.1627 92.8018 18.5228L96.7172 19.4643C98.4334 19.8759 99.7282 20.4264 100.602 21.1158C101.958 22.1859 102.636 23.7344 102.636 25.7614C102.636 27.8399 101.843 29.5659 100.255 30.9396C98.6672 32.3132 96.4243 33 93.5263 33C90.5667 33 88.2391 32.3235 86.5434 30.9704C84.8478 29.6174 84 27.7576 84 25.391H88.5319ZM109.651 32.4135H105.258V9.66367H109.651V32.4135ZM117.567 19.7267C117.007 20.3646 116.655 21.2289 116.511 22.3196H123.34C123.268 21.1569 122.916 20.2746 122.284 19.6727C121.652 19.0707 120.868 18.7698 119.933 18.7698C118.916 18.7698 118.127 19.0887 117.567 19.7267ZM123.71 15.9299C124.83 16.4547 125.755 17.283 126.484 18.4148C127.142 19.4129 127.569 20.5704 127.764 21.8875C127.877 22.6592 127.923 23.7704 127.903 25.2212H116.403C116.465 26.9087 116.994 28.092 117.991 28.7711C118.597 29.1929 119.327 29.4039 120.18 29.4039C121.084 29.4039 121.819 29.1466 122.384 28.6322C122.692 28.3543 122.965 27.9685 123.201 27.4746H127.687C127.574 28.4727 127.055 29.4862 126.13 30.5151C124.691 32.1511 122.677 32.9691 120.087 32.9691C117.95 32.9691 116.064 32.2797 114.43 30.901C112.796 29.5222 111.979 27.2791 111.979 24.1717C111.979 21.2598 112.716 19.027 114.191 17.4733C115.666 15.9196 117.58 15.1428 119.933 15.1428C121.331 15.1428 122.59 15.4051 123.71 15.9299ZM134.493 19.7267C133.933 20.3646 133.581 21.2289 133.437 22.3196H140.266C140.194 21.1569 139.842 20.2746 139.21 19.6727C138.578 19.0707 137.794 18.7698 136.859 18.7698C135.842 18.7698 135.053 19.0887 134.493 19.7267ZM140.636 15.9299C141.756 16.4547 142.681 17.283 143.41 18.4148C144.068 19.4129 144.495 20.5704 144.69 21.8875C144.803 22.6592 144.849 23.7704 144.829 25.2212H133.329C133.391 26.9087 133.92 28.092 134.917 28.7711C135.523 29.1929 136.253 29.4039 137.106 29.4039C138.01 29.4039 138.745 29.1466 139.31 28.6322C139.618 28.3543 139.891 27.9685 140.127 27.4746H144.613C144.5 28.4727 143.981 29.4862 143.056 30.5151C141.617 32.1511 139.603 32.9691 137.013 32.9691C134.876 32.9691 132.99 32.2797 131.356 30.901C129.722 29.5222 128.905 27.2791 128.905 24.1717C128.905 21.2598 129.642 19.027 131.117 17.4733C132.592 15.9196 134.506 15.1428 136.859 15.1428C138.257 15.1428 139.516 15.4051 140.636 15.9299ZM147.111 9.74083H151.427V21.9955L156.899 15.6675H162.34L156.467 22.1035L162.572 32.4135H157.269L153.246 25.2212L151.427 27.1196V32.4135H147.111V9.74083ZM177.656 16.555C178.76 17.4656 179.313 18.9756 179.313 21.0849V32.4135H174.812V22.1807C174.812 21.2958 174.693 20.6167 174.457 20.1434C174.025 19.2791 173.203 18.8469 171.991 18.8469C170.501 18.8469 169.478 19.4797 168.923 20.7453C168.635 21.4142 168.492 22.2682 168.492 23.3074V32.4135H164.114V15.6212H168.353V18.0752C168.918 17.2109 169.452 16.5884 169.956 16.2077C170.86 15.5286 172.006 15.1891 173.393 15.1891C175.13 15.1891 176.551 15.6444 177.656 16.555ZM193.233 27.9376C193.921 27.0219 194.266 25.7203 194.266 24.0328C194.266 22.3453 193.921 21.0463 193.233 20.1357C192.544 19.2251 191.558 18.7698 190.273 18.7698C188.989 18.7698 188 19.2251 187.306 20.1357C186.612 21.0463 186.265 22.3453 186.265 24.0328C186.265 25.7203 186.612 27.0219 187.306 27.9376C188 28.8534 188.989 29.3113 190.273 29.3113C191.558 29.3113 192.544 28.8534 193.233 27.9376ZM196.747 30.3685C195.329 32.1228 193.176 33 190.289 33C187.401 33 185.248 32.1228 183.83 30.3685C182.412 28.6141 181.703 26.5023 181.703 24.0328C181.703 21.6045 182.412 19.5003 183.83 17.7203C185.248 15.9402 187.401 15.0502 190.289 15.0502C193.176 15.0502 195.329 15.9402 196.747 17.7203C198.166 19.5003 198.875 21.6045 198.875 24.0328C198.875 26.5023 198.166 28.6141 196.747 30.3685ZM199.661 18.8778V15.7447H202.005V11.0527H206.352V15.7447H209.08V18.8778H206.352V27.7678C206.352 28.4572 206.439 28.8868 206.614 29.0566C206.788 29.2264 207.323 29.3113 208.217 29.3113C208.35 29.3113 208.492 29.3087 208.641 29.3035C208.79 29.2984 208.936 29.2907 209.08 29.2804V32.5678L206.999 32.645C204.923 32.717 203.505 32.3569 202.744 31.5646C202.251 31.0604 202.005 30.2836 202.005 29.2341V18.8778H199.661ZM215.532 19.7267C214.972 20.3646 214.62 21.2289 214.476 22.3196H221.304C221.233 21.1569 220.881 20.2746 220.249 19.6727C219.617 19.0707 218.833 18.7698 217.898 18.7698C216.88 18.7698 216.092 19.0887 215.532 19.7267ZM221.674 15.9299C222.795 16.4547 223.719 17.283 224.449 18.4148C225.107 19.4129 225.533 20.5704 225.729 21.8875C225.842 22.6592 225.888 23.7704 225.867 25.2212H214.368C214.429 26.9087 214.959 28.092 215.956 28.7711C216.562 29.1929 217.291 29.4039 218.144 29.4039C219.049 29.4039 219.784 29.1466 220.349 28.6322C220.657 28.3543 220.929 27.9685 221.166 27.4746H225.651C225.538 28.4727 225.019 29.4862 224.095 30.5151C222.656 32.1511 220.642 32.9691 218.052 32.9691C215.914 32.9691 214.029 32.2797 212.395 30.901C210.761 29.5222 209.944 27.2791 209.944 24.1717C209.944 21.2598 210.681 19.027 212.156 17.4733C213.63 15.9196 215.544 15.1428 217.898 15.1428C219.295 15.1428 220.554 15.4051 221.674 15.9299Z" fill="#09112B"></path><path d="M84.825 43.772H88.389C89.1883 43.772 89.83 44.0067 90.314 44.476C90.798 44.9453 91.04 45.5943 91.04 46.423C91.04 47.2517 90.798 47.9007 90.314 48.37C89.83 48.8393 89.1883 49.074 88.389 49.074H86.53V52H84.825V43.772ZM86.519 45.268V47.567H88.169C88.5063 47.567 88.7813 47.468 88.994 47.27C89.2067 47.072 89.313 46.7897 89.313 46.423C89.313 46.0563 89.2067 45.774 88.994 45.576C88.7813 45.3707 88.5063 45.268 88.169 45.268H86.519Z" fill="#09112B"></path><path d="M97.2549 43.651C98.5016 43.651 99.5246 44.0397 100.324 44.817C101.123 45.587 101.523 46.61 101.523 47.886C101.523 49.162 101.123 50.1887 100.324 50.966C99.5246 51.736 98.5016 52.121 97.2549 52.121C96.0009 52.121 94.9742 51.736 94.1749 50.966C93.3756 50.1887 92.9759 49.162 92.9759 47.886C92.9759 46.61 93.3756 45.587 94.1749 44.817C94.9742 44.0397 96.0009 43.651 97.2549 43.651ZM97.2549 45.158C96.4922 45.158 95.8762 45.4037 95.4069 45.895C94.9376 46.379 94.7029 47.0427 94.7029 47.886C94.7029 48.722 94.9376 49.3857 95.4069 49.877C95.8762 50.3683 96.4922 50.614 97.2549 50.614C98.0102 50.614 98.6189 50.3683 99.0809 49.877C99.5503 49.3857 99.7849 48.722 99.7849 47.886C99.7849 47.0427 99.5503 46.379 99.0809 45.895C98.6189 45.4037 98.0102 45.158 97.2549 45.158Z" fill="#09112B"></path><path d="M112.287 52H110.857L109.108 46.786L107.359 52H105.918L103.047 43.772H104.895L106.655 49.118L108.404 43.772H109.801L111.561 49.118L113.31 43.772H115.158L112.287 52Z" fill="#09112B"></path><path d="M122.495 45.268H118.92V47.05H122.022V48.513H118.92V50.493H122.506V52H117.215V43.772H122.495V45.268Z" fill="#09112B"></path><path d="M129.618 52L128.012 49.041H126.637V52H124.932V43.772H128.452C129.251 43.772 129.893 44.0067 130.377 44.476C130.861 44.938 131.103 45.5833 131.103 46.412C131.103 46.9767 130.986 47.4607 130.751 47.864C130.524 48.26 130.201 48.5607 129.783 48.766L131.532 52H129.618ZM126.626 47.534H128.243C128.58 47.534 128.852 47.435 129.057 47.237C129.27 47.039 129.376 46.764 129.376 46.412C129.376 46.0453 129.27 45.763 129.057 45.565C128.852 45.367 128.58 45.268 128.243 45.268H126.626V47.534Z" fill="#09112B"></path><path d="M139.089 45.268H135.514V47.05H138.616V48.513H135.514V50.493H139.1V52H133.809V43.772H139.089V45.268Z" fill="#09112B"></path><path d="M141.527 43.772H144.915C146.11 43.772 147.089 44.1423 147.852 44.883C148.614 45.6163 148.996 46.6173 148.996 47.886C148.996 49.1547 148.614 50.1593 147.852 50.9C147.089 51.6333 146.106 52 144.904 52H141.527V43.772ZM143.221 45.224V50.548H144.926C145.659 50.548 146.238 50.3207 146.664 49.866C147.096 49.4113 147.313 48.7513 147.313 47.886C147.313 47.0207 147.1 46.3607 146.675 45.906C146.249 45.4513 145.666 45.224 144.926 45.224H143.221Z" fill="#09112B"></path><path d="M155.038 43.772H158.481C159.258 43.772 159.878 43.9663 160.34 44.355C160.809 44.7437 161.044 45.312 161.044 46.06C161.044 46.7787 160.776 47.3177 160.241 47.677C160.578 47.809 160.853 48.04 161.066 48.37C161.279 48.7 161.385 49.1107 161.385 49.602C161.385 50.372 161.143 50.966 160.659 51.384C160.175 51.7947 159.53 52 158.723 52H155.038V43.772ZM156.732 45.268V47.072H158.371C159.002 47.072 159.317 46.775 159.317 46.181C159.317 45.8803 159.225 45.653 159.042 45.499C158.859 45.345 158.606 45.268 158.283 45.268H156.732ZM156.732 48.513V50.493H158.525C159.273 50.493 159.647 50.1667 159.647 49.514C159.647 49.1767 159.544 48.9273 159.339 48.766C159.141 48.5973 158.877 48.513 158.547 48.513H156.732Z" fill="#09112B"></path><path d="M167.729 48.832V52H166.035V48.832L162.911 43.772H164.88L166.871 47.149L168.862 43.772H170.842L167.729 48.832Z" fill="#09112B"></path><path d="M176.471 43.772H179.859C181.054 43.772 182.033 44.1423 182.796 44.883C183.559 45.6163 183.94 46.6173 183.94 47.886C183.94 49.1547 183.559 50.1593 182.796 50.9C182.033 51.6333 181.051 52 179.848 52H176.471V43.772ZM178.165 45.224V50.548H179.87C180.603 50.548 181.183 50.3207 181.608 49.866C182.041 49.4113 182.257 48.7513 182.257 47.886C182.257 47.0207 182.044 46.3607 181.619 45.906C181.194 45.4513 180.611 45.224 179.87 45.224H178.165Z" fill="#09112B"></path><path d="M191.087 52L189.481 49.041H188.106V52H186.401V43.772H189.921C190.72 43.772 191.362 44.0067 191.846 44.476C192.33 44.938 192.572 45.5833 192.572 46.412C192.572 46.9767 192.455 47.4607 192.22 47.864C191.993 48.26 191.67 48.5607 191.252 48.766L193.001 52H191.087ZM188.095 47.534H189.712C190.049 47.534 190.321 47.435 190.526 47.237C190.739 47.039 190.845 46.764 190.845 46.412C190.845 46.0453 190.739 45.763 190.526 45.565C190.321 45.367 190.049 45.268 189.712 45.268H188.095V47.534Z" fill="#09112B"></path><path d="M196.983 52H195.278V43.772H196.983V52Z" fill="#09112B"></path><path d="M199.73 43.772H203.294C204.093 43.772 204.735 44.0067 205.219 44.476C205.703 44.9453 205.945 45.5943 205.945 46.423C205.945 47.2517 205.703 47.9007 205.219 48.37C204.735 48.8393 204.093 49.074 203.294 49.074H201.435V52H199.73V43.772ZM201.424 45.268V47.567H203.074C203.411 47.567 203.686 47.468 203.899 47.27C204.112 47.072 204.218 46.7897 204.218 46.423C204.218 46.0563 204.112 45.774 203.899 45.576C203.686 45.3707 203.411 45.268 203.074 45.268H201.424Z" fill="#09112B"></path></svg>